<?xml version="1.0" encoding="UTF-8"?>
<svg xmlns="http://www.w3.org/2000/svg" xmlns:xlink="http://www.w3.org/1999/xlink" width="150pt" height="33pt" viewBox="0 0 150 33" version="1.1">
<defs>
<clipPath id="clip1">
  <path d="M 0.164062 10 L 148 10 L 148 11 L 0.164062 11 Z M 0.164062 10 "/>
</clipPath>
<clipPath id="clip2">
  <path d="M 0.164062 20 L 148 20 L 148 21 L 0.164062 21 Z M 0.164062 20 "/>
</clipPath>
</defs>
<g id="surface1">
<path style="fill:none;stroke-width:1;stroke-linecap:butt;stroke-linejoin:miter;stroke:rgb(61.960784%,61.960784%,61.960784%);stroke-opacity:1;stroke-miterlimit:10;" d="M 99.07306 -0.504941 L 99.07306 124.089286 " transform="matrix(0.246959,0,0,0.247554,0.165787,0)"/>
<g clip-path="url(#clip1)" clip-rule="nonzero">
<path style="fill:none;stroke-width:1;stroke-linecap:butt;stroke-linejoin:miter;stroke:rgb(61.960784%,61.960784%,61.960784%);stroke-opacity:1;stroke-miterlimit:10;" d="M -0.497323 41.200041 L 596.3081 41.200041 " transform="matrix(0.246959,0,0,0.247554,0.165787,0)"/>
</g>
<g clip-path="url(#clip2)" clip-rule="nonzero">
<path style="fill:none;stroke-width:1;stroke-linecap:butt;stroke-linejoin:miter;stroke:rgb(61.960784%,61.960784%,61.960784%);stroke-opacity:1;stroke-miterlimit:10;" d="M -0.497323 82.400083 L 596.3081 82.400083 " transform="matrix(0.246959,0,0,0.247554,0.165787,0)"/>
</g>
<path style=" stroke:none;fill-rule:nonzero;fill:rgb(0%,0%,0%);fill-opacity:1;" d="M 2.71875 3.355469 L 3.382812 3.355469 L 3.382812 5.148438 C 3.382812 5.429688 3.394531 5.617188 3.410156 5.699219 C 3.4375 5.835938 3.507812 5.949219 3.613281 6.03125 C 3.71875 6.109375 3.867188 6.148438 4.050781 6.148438 C 4.242188 6.148438 4.382812 6.109375 4.480469 6.035156 C 4.578125 5.957031 4.636719 5.863281 4.652344 5.75 C 4.675781 5.636719 4.683594 5.449219 4.683594 5.1875 L 4.683594 3.355469 L 5.347656 3.355469 L 5.347656 5.09375 C 5.347656 5.492188 5.328125 5.773438 5.292969 5.9375 C 5.257812 6.097656 5.191406 6.238281 5.09375 6.351562 C 5 6.464844 4.871094 6.554688 4.707031 6.621094 C 4.546875 6.6875 4.335938 6.722656 4.074219 6.722656 C 3.757812 6.722656 3.519531 6.6875 3.355469 6.613281 C 3.195312 6.539062 3.066406 6.445312 2.972656 6.328125 C 2.875 6.210938 2.8125 6.089844 2.785156 5.960938 C 2.742188 5.773438 2.71875 5.492188 2.71875 5.121094 Z M 6.652344 6.664062 L 6.019531 6.664062 L 6.019531 4.269531 L 6.605469 4.269531 L 6.605469 4.609375 C 6.707031 4.449219 6.796875 4.34375 6.878906 4.292969 C 6.957031 4.242188 7.046875 4.214844 7.152344 4.214844 C 7.296875 4.214844 7.433594 4.253906 7.566406 4.335938 L 7.371094 4.890625 C 7.265625 4.820312 7.167969 4.785156 7.074219 4.785156 C 6.988281 4.785156 6.910156 4.808594 6.851562 4.859375 C 6.789062 4.90625 6.738281 4.996094 6.703125 5.125 C 6.671875 5.25 6.652344 5.519531 6.652344 5.925781 Z M 7.839844 6.664062 L 7.839844 3.355469 L 8.472656 3.355469 L 8.472656 6.664062 Z M 7.839844 6.664062 "/>
<path style=" stroke:none;fill-rule:nonzero;fill:rgb(0%,0%,0%);fill-opacity:1;" d="M 2.714844 16.863281 L 2.714844 13.554688 L 3.710938 13.554688 L 4.308594 15.808594 L 4.902344 13.554688 L 5.898438 13.554688 L 5.898438 16.863281 L 5.28125 16.863281 L 5.28125 14.257812 L 4.625 16.863281 L 3.984375 16.863281 L 3.332031 14.257812 L 3.332031 16.863281 Z M 7.941406 16.101562 L 8.570312 16.203125 C 8.488281 16.4375 8.363281 16.613281 8.1875 16.734375 C 8.011719 16.855469 7.792969 16.917969 7.53125 16.917969 C 7.117188 16.917969 6.808594 16.78125 6.609375 16.507812 C 6.453125 16.289062 6.371094 16.015625 6.371094 15.683594 C 6.371094 15.285156 6.476562 14.976562 6.683594 14.75 C 6.890625 14.527344 7.152344 14.414062 7.46875 14.414062 C 7.824219 14.414062 8.105469 14.53125 8.308594 14.765625 C 8.515625 15 8.613281 15.363281 8.601562 15.847656 L 7.019531 15.847656 C 7.027344 16.039062 7.078125 16.183594 7.171875 16.289062 C 7.269531 16.394531 7.390625 16.445312 7.539062 16.445312 C 7.636719 16.445312 7.71875 16.417969 7.785156 16.363281 C 7.855469 16.308594 7.90625 16.222656 7.941406 16.101562 Z M 7.976562 15.457031 C 7.972656 15.277344 7.925781 15.136719 7.835938 15.039062 C 7.746094 14.945312 7.636719 14.898438 7.507812 14.898438 C 7.367188 14.898438 7.253906 14.949219 7.164062 15.046875 C 7.074219 15.148438 7.03125 15.285156 7.03125 15.457031 Z M 10.214844 14.46875 L 10.214844 14.972656 L 9.785156 14.972656 L 9.785156 15.9375 C 9.785156 16.132812 9.789062 16.25 9.796875 16.28125 C 9.804688 16.3125 9.820312 16.339844 9.851562 16.359375 C 9.878906 16.378906 9.917969 16.390625 9.957031 16.390625 C 10.015625 16.390625 10.101562 16.371094 10.210938 16.328125 L 10.265625 16.824219 C 10.121094 16.886719 9.953125 16.917969 9.769531 16.917969 C 9.652344 16.917969 9.550781 16.898438 9.457031 16.859375 C 9.367188 16.820312 9.300781 16.769531 9.253906 16.710938 C 9.214844 16.648438 9.1875 16.566406 9.171875 16.464844 C 9.15625 16.390625 9.148438 16.238281 9.148438 16.015625 L 9.148438 14.972656 L 8.859375 14.972656 L 8.859375 14.46875 L 9.148438 14.46875 L 9.148438 13.992188 L 9.785156 13.621094 L 9.785156 14.46875 Z M 11.285156 13.554688 L 11.285156 14.773438 C 11.488281 14.535156 11.730469 14.414062 12.011719 14.414062 C 12.160156 14.414062 12.289062 14.441406 12.40625 14.496094 C 12.523438 14.550781 12.613281 14.617188 12.671875 14.703125 C 12.730469 14.785156 12.773438 14.878906 12.792969 14.984375 C 12.816406 15.082031 12.828125 15.242188 12.828125 15.457031 L 12.828125 16.863281 L 12.195312 16.863281 L 12.195312 15.597656 C 12.195312 15.347656 12.183594 15.1875 12.15625 15.121094 C 12.132812 15.050781 12.089844 15 12.027344 14.960938 C 11.96875 14.917969 11.894531 14.898438 11.804688 14.898438 C 11.699219 14.898438 11.605469 14.921875 11.523438 14.976562 C 11.441406 15.027344 11.378906 15.105469 11.339844 15.207031 C 11.304688 15.308594 11.285156 15.460938 11.285156 15.664062 L 11.285156 16.863281 L 10.652344 16.863281 L 10.652344 13.554688 Z M 13.324219 15.632812 C 13.324219 15.421875 13.375 15.21875 13.476562 15.019531 C 13.578125 14.824219 13.726562 14.671875 13.917969 14.570312 C 14.105469 14.464844 14.320312 14.414062 14.554688 14.414062 C 14.914062 14.414062 15.210938 14.53125 15.441406 14.765625 C 15.671875 15 15.789062 15.296875 15.789062 15.660156 C 15.789062 16.019531 15.671875 16.320312 15.4375 16.5625 C 15.203125 16.796875 14.910156 16.917969 14.558594 16.917969 C 14.339844 16.917969 14.128906 16.867188 13.929688 16.769531 C 13.730469 16.667969 13.578125 16.523438 13.476562 16.332031 C 13.375 16.140625 13.324219 15.90625 13.324219 15.632812 Z M 13.972656 15.664062 C 13.972656 15.902344 14.027344 16.085938 14.136719 16.210938 C 14.25 16.335938 14.390625 16.398438 14.554688 16.398438 C 14.71875 16.398438 14.855469 16.335938 14.964844 16.210938 C 15.078125 16.085938 15.136719 15.902344 15.136719 15.660156 C 15.136719 15.425781 15.078125 15.246094 14.964844 15.117188 C 14.855469 14.992188 14.71875 14.929688 14.554688 14.929688 C 14.390625 14.929688 14.25 14.992188 14.136719 15.117188 C 14.027344 15.246094 13.972656 15.425781 13.972656 15.664062 Z M 18.476562 16.863281 L 17.886719 16.863281 L 17.886719 16.511719 C 17.789062 16.648438 17.671875 16.75 17.539062 16.816406 C 17.40625 16.882812 17.273438 16.917969 17.140625 16.917969 C 16.863281 16.917969 16.628906 16.804688 16.433594 16.585938 C 16.238281 16.363281 16.140625 16.054688 16.140625 15.65625 C 16.140625 15.25 16.234375 14.941406 16.425781 14.730469 C 16.617188 14.519531 16.855469 14.414062 17.148438 14.414062 C 17.414062 14.414062 17.648438 14.523438 17.84375 14.746094 L 17.84375 13.554688 L 18.476562 13.554688 Z M 16.785156 15.613281 C 16.785156 15.867188 16.820312 16.054688 16.894531 16.167969 C 16.992188 16.332031 17.136719 16.417969 17.316406 16.417969 C 17.464844 16.417969 17.585938 16.355469 17.6875 16.230469 C 17.792969 16.105469 17.84375 15.921875 17.84375 15.675781 C 17.84375 15.398438 17.792969 15.199219 17.691406 15.078125 C 17.59375 14.957031 17.46875 14.898438 17.3125 14.898438 C 17.164062 14.898438 17.039062 14.957031 16.9375 15.078125 C 16.835938 15.199219 16.785156 15.375 16.785156 15.613281 Z M 16.785156 15.613281 "/>
<path style=" stroke:none;fill-rule:nonzero;fill:rgb(0%,0%,0%);fill-opacity:1;" d="M 2.722656 27.0625 L 2.722656 23.753906 L 3.792969 23.753906 C 4.195312 23.753906 4.460938 23.769531 4.585938 23.804688 C 4.773438 23.851562 4.929688 23.960938 5.058594 24.128906 C 5.1875 24.292969 5.25 24.507812 5.25 24.769531 C 5.25 24.976562 5.214844 25.144531 5.140625 25.285156 C 5.066406 25.421875 4.972656 25.53125 4.859375 25.609375 C 4.746094 25.6875 4.628906 25.738281 4.515625 25.765625 C 4.355469 25.796875 4.125 25.816406 3.824219 25.816406 L 3.386719 25.816406 L 3.386719 27.0625 Z M 3.386719 24.316406 L 3.386719 25.25 L 3.753906 25.25 C 4.015625 25.25 4.191406 25.234375 4.277344 25.199219 C 4.371094 25.167969 4.4375 25.113281 4.488281 25.039062 C 4.539062 24.964844 4.566406 24.878906 4.566406 24.78125 C 4.566406 24.660156 4.527344 24.5625 4.457031 24.484375 C 4.386719 24.40625 4.296875 24.355469 4.191406 24.339844 C 4.109375 24.324219 3.953125 24.316406 3.710938 24.316406 Z M 6.265625 25.398438 L 5.6875 25.292969 C 5.757812 25.0625 5.867188 24.890625 6.023438 24.777344 C 6.183594 24.667969 6.414062 24.613281 6.726562 24.613281 C 7.007812 24.613281 7.21875 24.644531 7.355469 24.714844 C 7.496094 24.78125 7.589844 24.867188 7.644531 24.96875 C 7.703125 25.070312 7.730469 25.261719 7.730469 25.53125 L 7.726562 26.277344 C 7.726562 26.484375 7.734375 26.640625 7.753906 26.738281 C 7.773438 26.839844 7.8125 26.949219 7.871094 27.0625 L 7.246094 27.0625 C 7.226562 27.019531 7.207031 26.957031 7.183594 26.875 C 7.171875 26.835938 7.164062 26.8125 7.160156 26.796875 C 7.050781 26.902344 6.933594 26.984375 6.8125 27.039062 C 6.691406 27.089844 6.558594 27.113281 6.417969 27.113281 C 6.175781 27.113281 5.980469 27.046875 5.839844 26.914062 C 5.699219 26.78125 5.628906 26.609375 5.628906 26.40625 C 5.628906 26.269531 5.660156 26.148438 5.722656 26.042969 C 5.789062 25.9375 5.878906 25.859375 5.992188 25.804688 C 6.109375 25.746094 6.277344 25.695312 6.496094 25.652344 C 6.792969 25.597656 6.996094 25.546875 7.109375 25.5 L 7.109375 25.4375 C 7.109375 25.3125 7.078125 25.226562 7.019531 25.171875 C 6.960938 25.121094 6.847656 25.097656 6.679688 25.097656 C 6.566406 25.097656 6.480469 25.121094 6.414062 25.164062 C 6.351562 25.210938 6.300781 25.285156 6.265625 25.398438 Z M 7.109375 25.914062 C 7.03125 25.9375 6.902344 25.96875 6.722656 26.007812 C 6.546875 26.046875 6.433594 26.082031 6.378906 26.117188 C 6.296875 26.175781 6.257812 26.25 6.257812 26.339844 C 6.257812 26.429688 6.289062 26.507812 6.355469 26.574219 C 6.421875 26.636719 6.507812 26.671875 6.609375 26.671875 C 6.722656 26.671875 6.832031 26.632812 6.933594 26.554688 C 7.011719 26.496094 7.0625 26.429688 7.085938 26.34375 C 7.101562 26.292969 7.109375 26.1875 7.109375 26.035156 Z M 8.960938 27.0625 L 8.328125 27.0625 L 8.328125 24.667969 L 8.914062 24.667969 L 8.914062 25.007812 C 9.015625 24.84375 9.105469 24.738281 9.183594 24.691406 C 9.265625 24.636719 9.355469 24.613281 9.460938 24.613281 C 9.601562 24.613281 9.742188 24.652344 9.875 24.734375 L 9.679688 25.285156 C 9.574219 25.214844 9.476562 25.179688 9.382812 25.179688 C 9.292969 25.179688 9.21875 25.207031 9.160156 25.253906 C 9.097656 25.304688 9.046875 25.394531 9.011719 25.523438 C 8.976562 25.648438 8.960938 25.914062 8.960938 26.320312 Z M 10.621094 25.398438 L 10.042969 25.292969 C 10.113281 25.0625 10.222656 24.890625 10.378906 24.777344 C 10.539062 24.667969 10.769531 24.613281 11.082031 24.613281 C 11.363281 24.613281 11.574219 24.644531 11.710938 24.714844 C 11.851562 24.78125 11.945312 24.867188 12 24.96875 C 12.058594 25.070312 12.085938 25.261719 12.085938 25.53125 L 12.082031 26.277344 C 12.082031 26.484375 12.089844 26.640625 12.109375 26.738281 C 12.128906 26.839844 12.167969 26.949219 12.226562 27.0625 L 11.597656 27.0625 C 11.582031 27.019531 11.5625 26.957031 11.539062 26.875 C 11.527344 26.835938 11.519531 26.8125 11.515625 26.796875 C 11.40625 26.902344 11.289062 26.984375 11.167969 27.039062 C 11.046875 27.089844 10.914062 27.113281 10.773438 27.113281 C 10.53125 27.113281 10.335938 27.046875 10.195312 26.914062 C 10.054688 26.78125 9.984375 26.609375 9.984375 26.40625 C 9.984375 26.269531 10.015625 26.148438 10.078125 26.042969 C 10.144531 25.9375 10.234375 25.859375 10.347656 25.804688 C 10.464844 25.746094 10.632812 25.695312 10.851562 25.652344 C 11.148438 25.597656 11.351562 25.546875 11.464844 25.5 L 11.464844 25.4375 C 11.464844 25.3125 11.433594 25.226562 11.375 25.171875 C 11.316406 25.121094 11.203125 25.097656 11.035156 25.097656 C 10.921875 25.097656 10.835938 25.121094 10.769531 25.164062 C 10.707031 25.210938 10.65625 25.285156 10.621094 25.398438 Z M 11.464844 25.914062 C 11.386719 25.9375 11.257812 25.96875 11.078125 26.007812 C 10.902344 26.046875 10.789062 26.082031 10.734375 26.117188 C 10.652344 26.175781 10.613281 26.25 10.613281 26.339844 C 10.613281 26.429688 10.644531 26.507812 10.710938 26.574219 C 10.777344 26.636719 10.863281 26.671875 10.964844 26.671875 C 11.078125 26.671875 11.1875 26.632812 11.289062 26.554688 C 11.367188 26.496094 11.417969 26.429688 11.441406 26.34375 C 11.457031 26.292969 11.464844 26.1875 11.464844 26.035156 Z M 12.660156 24.667969 L 13.242188 24.667969 L 13.242188 24.992188 C 13.453125 24.738281 13.699219 24.613281 13.988281 24.613281 C 14.144531 24.613281 14.273438 24.644531 14.386719 24.710938 C 14.5 24.769531 14.589844 24.867188 14.664062 24.992188 C 14.769531 24.867188 14.882812 24.769531 15.003906 24.710938 C 15.125 24.644531 15.257812 24.613281 15.394531 24.613281 C 15.566406 24.613281 15.714844 24.648438 15.835938 24.722656 C 15.960938 24.789062 16.050781 24.894531 16.109375 25.035156 C 16.15625 25.136719 16.175781 25.300781 16.175781 25.527344 L 16.175781 27.0625 L 15.542969 27.0625 L 15.542969 25.691406 C 15.542969 25.453125 15.523438 25.300781 15.476562 25.230469 C 15.421875 25.140625 15.332031 25.097656 15.207031 25.097656 C 15.121094 25.097656 15.035156 25.125 14.957031 25.175781 C 14.878906 25.230469 14.824219 25.3125 14.789062 25.417969 C 14.757812 25.519531 14.742188 25.683594 14.742188 25.914062 L 14.742188 27.0625 L 14.109375 27.0625 L 14.109375 25.75 C 14.109375 25.515625 14.097656 25.363281 14.074219 25.296875 C 14.050781 25.230469 14.015625 25.179688 13.96875 25.144531 C 13.921875 25.113281 13.859375 25.097656 13.777344 25.097656 C 13.679688 25.097656 13.589844 25.125 13.515625 25.175781 C 13.4375 25.230469 13.378906 25.304688 13.34375 25.40625 C 13.308594 25.503906 13.292969 25.667969 13.292969 25.898438 L 13.292969 27.0625 L 12.660156 27.0625 Z M 16.582031 26.375 L 17.214844 26.28125 C 17.246094 26.402344 17.300781 26.496094 17.382812 26.5625 C 17.464844 26.625 17.582031 26.660156 17.730469 26.660156 C 17.890625 26.660156 18.015625 26.628906 18.097656 26.566406 C 18.152344 26.523438 18.179688 26.46875 18.179688 26.398438 C 18.179688 26.351562 18.167969 26.3125 18.136719 26.28125 C 18.105469 26.25 18.035156 26.21875 17.921875 26.195312 C 17.414062 26.082031 17.089844 25.976562 16.953125 25.886719 C 16.765625 25.757812 16.671875 25.578125 16.671875 25.347656 C 16.671875 25.136719 16.753906 24.964844 16.914062 24.824219 C 17.082031 24.683594 17.332031 24.613281 17.675781 24.613281 C 18.003906 24.613281 18.246094 24.667969 18.40625 24.773438 C 18.566406 24.878906 18.675781 25.039062 18.734375 25.246094 L 18.140625 25.355469 C 18.113281 25.261719 18.0625 25.191406 17.992188 25.140625 C 17.921875 25.09375 17.820312 25.070312 17.6875 25.070312 C 17.523438 25.070312 17.40625 25.09375 17.332031 25.136719 C 17.285156 25.171875 17.257812 25.214844 17.257812 25.265625 C 17.257812 25.308594 17.28125 25.347656 17.320312 25.382812 C 17.378906 25.421875 17.574219 25.484375 17.910156 25.558594 C 18.25 25.636719 18.484375 25.730469 18.617188 25.84375 C 18.75 25.953125 18.8125 26.109375 18.8125 26.3125 C 18.8125 26.53125 18.722656 26.722656 18.539062 26.878906 C 18.359375 27.035156 18.085938 27.113281 17.730469 27.113281 C 17.402344 27.113281 17.144531 27.050781 16.953125 26.917969 C 16.765625 26.785156 16.644531 26.601562 16.582031 26.375 Z M 16.582031 26.375 "/>
</g>
</svg>
